<?xml version="1.0" encoding="utf-8"?><svg xml:space="preserve" viewBox="0 0 100 100" y="0" x="0" xmlns="http://www.w3.org/2000/svg" id="圖層_1" version="1.1" width="267px" height="267px" xmlns:xlink="http://www.w3.org/1999/xlink" style="width:100%;height:100%;background-size:initial;background-repeat-y:initial;background-repeat-x:initial;background-position-y:initial;background-position-x:initial;background-origin:initial;background-image:initial;background-color:rgb(255, 255, 255);background-clip:initial;background-attachment:initial;animation-play-state:paused" ><g class="ldl-scale" style="transform-origin:50% 50%;transform:rotate(0deg) scale(0.8, 0.8);animation-play-state:paused" ><path fill="#c5c2ba" d="M50 19.074c-7.42 0-13.435 10.851-13.435 19.472 0 4.191 1.43 7.988 3.744 10.792 2.775 1.85 6.106 2.932 9.691 2.932s6.916-1.082 9.691-2.932c2.314-2.804 3.744-6.601 3.744-10.792 0-8.62-6.015-19.472-13.435-19.472z" style="fill:rgb(20, 27, 69);animation-play-state:paused" ></path>
<path fill="#96ab5f" d="M59.035 46.117c-2.48 1.978-5.617 3.167-9.035 3.167s-6.555-1.189-9.035-3.167c-.418.177-.831.364-1.235.564-.194.096-.382.203-.572.306.396.66.826 1.291 1.304 1.871 2.731 1.821 6.009 2.886 9.537 2.886s6.806-1.065 9.537-2.886c.478-.579.908-1.211 1.304-1.871-.19-.103-.377-.21-.572-.306a22.23 22.23 0 0 0-1.233-.564z" style="fill:rgb(20, 27, 69);animation-play-state:paused" ></path>
<path fill="#c0996d" d="M51.721 25.368c-.563-.133-1.137-.209-1.721-.209s-1.158.076-1.721.209c-6.34 1.491-11.233 5.932-11.233 13.565 0 .971.088 1.916.24 2.835a14.578 14.578 0 0 0 3.678 4.349c2.48 1.978 5.617 3.167 9.035 3.167s6.555-1.189 9.035-3.167a14.55 14.55 0 0 0 3.678-4.349c.152-.919.24-1.864.24-2.835.002-7.633-4.891-12.074-11.231-13.565z" style="fill:rgb(20, 27, 69);animation-play-state:paused" ></path>
<ellipse fill="#f1f5db" ry="15.347" rx="11" cy="35.383" cx="50" style="fill:rgb(241, 245, 219);animation-play-state:paused" ></ellipse>
<path fill="none" d="M51.721 25.368c-.563-.133-1.137-.209-1.721-.209s-1.158.076-1.721.209c.565-.067 1.138-.111 1.721-.111s1.156.044 1.721.111z" style="animation-play-state:paused" ></path>
<path fill="none" d="M39.091 47.023l.067-.036a15.973 15.973 0 0 1-.77-1.434c.214.505.443.999.703 1.47z" style="animation-play-state:paused" ></path>
<path fill="none" d="M60.909 47.023c.26-.471.49-.965.704-1.47-.233.497-.493.973-.77 1.434l.066.036z" style="animation-play-state:paused" ></path>
<path fill="#573e31" d="M66.109 50.828c-2.039-2.005-2.579-5.062-1.227-7.583a16.78 16.78 0 0 0 1.991-7.953c0-9.319-7.554-21.049-16.873-21.049S33.127 25.974 33.127 35.292c0 2.877.721 5.584 1.991 7.953 1.352 2.52.812 5.577-1.227 7.583-3.953 3.887-6.391 9.195-6.391 15.059v14.467c0 2.984 2.52 5.403 5.628 5.403h33.745c3.108 0 5.628-2.419 5.628-5.403V65.887c-.001-5.864-2.44-11.172-6.392-15.059zm-3.395-9.06a16.723 16.723 0 0 1-1.101 3.785c-.214.505-.443.999-.704 1.47l-.067-.036a15.36 15.36 0 0 1-1.304 1.871c-2.731 1.821-6.009 2.886-9.537 2.886s-6.806-1.065-9.537-2.886a15.284 15.284 0 0 1-1.304-1.871l-.067.036c-.26-.471-.49-.965-.703-1.47a16.665 16.665 0 0 1-1.101-3.786 17.341 17.341 0 0 1-.24-2.835c0-7.633 4.893-12.073 11.233-13.565.563-.133 1.137-.209 1.721-.209s1.158.076 1.721.209c6.34 1.491 11.233 5.932 11.233 13.565a17.68 17.68 0 0 1-.243 2.836z" style="fill:rgb(219, 166, 19);animation-play-state:paused" ></path>
<path d="M46.707 56.243v10.375" stroke-miterlimit="10" stroke-linecap="round" stroke-width="2" stroke="#754c24" fill="none" style="stroke:rgb(20, 27, 69);animation-play-state:paused" ></path>
<circle fill="#c0996d" r="2" cy="66.618" cx="46.707" style="fill:rgb(20, 27, 69);animation-play-state:paused" ></circle>
<path d="M52.707 56.243v18.375" stroke-miterlimit="10" stroke-linecap="round" stroke-width="2" stroke="#754c24" fill="none" style="stroke:rgb(20, 27, 69);animation-play-state:paused" ></path>
<circle fill="#c0996d" r="2" cy="74.618" cx="52.707" style="fill:rgb(20, 27, 69);animation-play-state:paused" ></circle>
<g style="animation-play-state:paused" ><path fill="#534741" d="M41.322 35.8c.613-.463 1.226-.705 1.839-.868.613-.177 1.226-.224 1.839-.244.613.022 1.226.07 1.839.247.613.164 1.226.404 1.839.865v.4L45 36.146l-3.678.054v-.4z" style="fill:rgb(83, 71, 65);animation-play-state:paused" ></path></g>
<g style="animation-play-state:paused" ><path fill="#534741" d="M51.322 35.8c.613-.437 1.226-.666 1.839-.819.613-.167 1.226-.212 1.839-.23.613.021 1.226.066 1.839.233.613.154 1.226.382 1.839.816v.4L55 36.139l-3.678.061v-.4z" style="fill:rgb(83, 71, 65);animation-play-state:paused" ></path></g>
<g style="animation-play-state:paused" ><path d="M41.447 31.048l7.106 1.904" fill="#534741" style="fill:rgb(83, 71, 65);animation-play-state:paused" ></path>
<path fill="#534741" d="M41.499 30.855c1.342-.272 2.563-.089 3.753.207 1.178.341 2.326.793 3.353 1.697l-.104.386c-1.164-.394-2.353-.692-3.529-1.041-1.193-.286-2.372-.623-3.577-.863l.104-.386z" style="fill:rgb(83, 71, 65);animation-play-state:paused" ></path></g>
<g style="animation-play-state:paused" ><path d="M51.447 32.952l7.106-1.904" fill="#534741" style="fill:rgb(83, 71, 65);animation-play-state:paused" ></path>
<path fill="#534741" d="M51.395 32.759c1.026-.907 2.175-1.358 3.353-1.697 1.191-.293 2.411-.476 3.753-.207l.104.386c-1.205.241-2.384.578-3.577.863-1.176.349-2.365.647-3.529 1.041l-.104-.386z" style="fill:rgb(83, 71, 65);animation-play-state:paused" ></path></g>
<g style="animation-play-state:paused" ><path d="M51.281 44.25L50 48.93l-1.281-4.68z" fill="#534741" style="fill:rgb(83, 71, 65);animation-play-state:paused" ></path></g>
<path d="M48.406 42.25H43.469L41.4 40.04l2.85 1.054 3.5-1.156H50z" fill="#534741" style="fill:rgb(83, 71, 65);animation-play-state:paused" ></path>
<path d="M51.594 42.25H56.531l2.069-2.21-2.85 1.054-3.5-1.156H50z" fill="#534741" style="fill:rgb(83, 71, 65);animation-play-state:paused" ></path>
<metadata xmlns:d="https://loading.io/stock/" style="animation-play-state:paused" ><d:name style="animation-play-state:paused" >vendetta</d:name>
<d:tags style="animation-play-state:paused" >anonymous,hacker,mask,criminal,vendetta,people</d:tags>
<d:license style="animation-play-state:paused" >pro</d:license>
<d:slug style="animation-play-state:paused" >qvuxyc</d:slug></metadata></g><!-- generated by https://loading.io/ --></svg>